<mxfile host="app.diagrams.net" modified="2024-03-11T06:41:57.177Z" agent="Mozilla/5.0 (Windows NT 10.0; Win64; x64; rv:109.0) Gecko/20100101 Firefox/115.0" etag="hWnGkjqMAqN9kjMmFcP4" version="23.1.1" type="github">
  <diagram name="第 1 页" id="LEAfG3Y5crfdbThjW0vp">
    <mxGraphModel dx="1434" dy="754" grid="1" gridSize="10" guides="1" tooltips="1" connect="1" arrows="1" fold="1" page="1" pageScale="1" pageWidth="1169" pageHeight="827" math="0" shadow="0">
      <root>
        <mxCell id="0" />
        <mxCell id="1" parent="0" />
        <mxCell id="CY_EQNgjVWfBxw-xBrAY-1" value="" style="rounded=0;whiteSpace=wrap;html=1;hachureGap=4;fontFamily=Times New Roman;fontSize=20;labelBackgroundColor=none;fillColor=none;strokeColor=none;" vertex="1" parent="1">
          <mxGeometry x="165" y="284.5" width="840" height="654.5" as="geometry" />
        </mxCell>
        <mxCell id="CY_EQNgjVWfBxw-xBrAY-16" value="" style="shape=image;verticalLabelPosition=bottom;labelBackgroundColor=default;verticalAlign=top;aspect=fixed;imageAspect=0;image=data:image/png,iVBORw0KGgoAAAANSUhEUgAAAXIAAAJhCAIAAADT7Kz2AAAAKnRFWHRjb3B5bGVmdABHZW5lcmF0ZWQgYnkgaHR0cHM6Ly9wbGFudHVtbC5jb212zsofAAAB4GlUWHRwbGFudHVtbAABAAAAeJyFU9Fy2jAQfNdX3KOZFoaQNpN6GBoQpCk1mAlO2jdGyCpWx0geWWaapvn3SrYFTuK2ftPtam/3zrrKNVG62KeIpiTPAUuh2U8Nj6gLjwbTnD5BlChG4kBSkg5rwghwuIxm36JNdHM7G083QYjHQfOSU5qM17NNTTb4WisudiDInpmTI2VEMaFN4YbkyYJkQ2zdDD+O3obbH4yadqW9QXVq8Cq5I8vKOtKbozo19jXDCU9jr7rQMegrp1uSM68VoYWy/krwhWh1+gdyaniQPIac6clDmc6rMmKX8TllaZJ4z9K9xq+lqhiOeOoVZppLYfc1gh3TuA7gWrZQ2jE32IZGS5Oq1GS9tPY30f+otcnUf5BByxk1J29qK3LcVDmsmOeZrPdaFrQsaOKdRnrcWioFC4VlPiH7fXbI8Hev52joionYPhe0SonQd4sADkzlxjic9Qb9wXnvwvvKYhhnCs4+QL/v98/995eA1xFYuIO8T6sAclkoyqw5E2Zb2OAdNCcHAreF0HzPfDMOJubTL64AM3HgSoq9fSfz+8WJcPGuO+Ea1kwZJ3C/QFP2nRSpNjeojM2ofLiLrruXKCBiV5Cd0f6VICyNrnrwAS/RH4yRWXwt6nEfAABkCUlEQVR4Xu29fXQV1b3/HyzlIQgEiBhAniJWIBCMEIoFlFSgVipF8AooFsoFNJgrCCUx8lBiAkFiAgE1AkWQCooEFQwEBESwiFIQriBRkFIiEhBMMv/d9q51v7/PL1u3mz17z5mcM2cyc/J+raysPZ/ZT7PnzPvsfc6Z90T9PwAAcJQoOQAAAKEBWQEAOAxkBQDgMJAVAIDDQFYAAA4DWQEAOAxkxWdUVVUtXbp08eLFi+oTBw8elAcCeBjIis/Iy8v75ptvjHpGcXHx5s2b5bEAXgWy4jPorVu+5uoHubm58lgArwJZ8Rn1VlZeeOEFeSyAV4Gs+AzICvA+kBWfYS0r1yqvbX7vrSkzpt11z6+69+oRFxfXo1fPQSmD/mv2U7v37K6urpYL+AfIio+ArPgMnaxUVletK34teVD/fr9KnpLxeP5bhWv3vbb1v7fTf0pTpN/A5IF3D9qxc4dc0idAVnwEZMVnKGXl0ncVE9P+2Ltv4vyXs0hKdH+0t0/fO2bP+VNlZaVcheeBrPgIyIrPMMsKacpvRt137wNDNx7ebJYS6Y/yDBs5/OFxY32nLJAVHwFZ8RmSrNDah+YppClbjr9rFhHlH+X8ze/vS09PF+vxPpAVHwFZ8RmSrKwrfo3WPq9/HHieIv5R/r7JfUtLS8WqPA5kxUdAVnyGKCvXKq/1H/RL689TdH8Li7JTfp3iwndDH330kRyygbkUZMVHQFZ8higrm997q9/AZLNkvPn3rWNTx7fr1L5xk8Zdu8fPyX/mV8MH9uybIGUbdPegvXv38tqioqJ4ury8PDU1tUOHDk2bNk1MTNywYQPfVVsaN24sh2xgLgVZ8RGQFZ8hysqUGdOmZjxu1pRfJN4epULKOXP+rMzMTF5b1I+ycunSpYSEhLy8vDNnzly+fHnbtm3t27dfu3Ytz1kreLW1wlwKsuIjICs+Q5SVu+65K39zoSQW4598lK7JFjEt0pdlvnGk+OUdq+8be79SVl7a+srQoUN5bfxKzsjImD9/Po8T27dv79+/P0tXVVWlp6fHxcXRRObuu+8+deoUi1PxwsLCTp063XDDDT//+c83btzIghyW7ZlnnmnTps3NN988c+bM77//niIjRowoLi5mezdt2kRdMpcyICu+ArLiM0RZ6Z7Qfe0HGySx6ND1FroanymcxyPFx7fdmtCt+x09pJzr92/s06cPr41fwz169Dh06BCPM/inMDk5OYsXL75cQ3Z29oQJE1icig8aNOjYsWOU8/XXXydl4XGWIFatWrVs2TIq+I9//OPFF1+kNAVPnz6dlJR07do1miWRKn3yySdSKQZkxUdAVnyGKCu3dLzlrWPvSGLxs4Y/o2vyzSPFUlzx99l2uox5bfxKpmnIt99+y+MSJDokCiz99ddfd+zYkaWpOFMEvikliH79+omuDj179mQJ0qmsrCyaBE2ePJlFICu+BrLiM0RZ6dGrh3m20qBBA7om3/pMlhvz3xsHtyhnK9HR0VevXuVxicaNG7PFC0GJJk2asDQVF0spZaVly5ZRArxsZWUlKU5MTAzplLkUA7LiIyArPkOUlYFDBpo/W4ltdxNdkwtXZ5t1RPp7dft65WcrvXv3PnnyJI8bNR/irlu3jqWbN2/OZYV05IYbbmBpSQiUsnLjjTdeuXKFb3JIVoYNGxYfH3/u3DkWgaz4GsiKzxBl5b9mP2X+Jmj0fz5E12RMbKuZubNf3f9XWiUt27oyeUj/W3t2k3I++9xc5TdBtBiha5jHiRUrVtxzzz0sTRMccRHEvwm2IyskWF988QXf5NAiaPny5QUFBVgERQaQFZ8hysruPbuTB/aXxGLTp1uUXzD3u+e6nNtO7hwyZIjydyvl5eXdunXLzc09e/bsxYsX16xZ07p16/fff5/tpetf/Mg2ISFBKi5t0uzm008/ZUq0bNmyP//5zzT3oc0FCxYwqSorK0tOTq6sgWpjH9CIpRiQFR8BWfEZoqxUV1cPumeQ+Ve2m4++PelPk29N6Na0WVP2i7g/zPojBcU8L79W9Otf/1r8la2oC6dOnRozZkxsbGx0dPSAAQN27PjJTqGqqmrGjBktW7aMiYkZPXr0559/zuI6WcnKymrWrBnVY9SUffrpp0mkKPLb3/72q6++Mmq+YH777bdZ5q1bt7J1mViKAVnxEZAVnyHdE7Rj544+fe+o7T1B2/6+45e//CXuCQJhArLiM8zGCLPn/GnYyOH272De/vnOh/7joYyMDKkejwNZ8RGQFZ9hlpXKysqHx439ze/vs+O3sv3o/68p48ePh98KCB+QFZ9hlhWjRlnS09P7JvddWKT9XnnbyZ0vv1ZEax+ap/hOUwzIiq+ArPgMpawwSktLU1JSBt49aMa8p196+5X1H7z+7uc7Nh3cvG77a89mzR0yZAjt9dfnKSKQFR8BWfEZFrJi1Hw3tHfv3szMzGHDhvXp0ycuLo7+U5oiFHfBXSV8QFZ8BGTFZ1jLSgQDWfERkBWfAVkB3gey4jMgK8D7QFZ8BmQFeB/Iis8gWVm3bt2iesb69eshKz4CsuIzFmG2AjwPZMVnQFaA94Gs+AzICvA+kBWfAVkB3gey4jMgK8D7QFZ8BmQFeB/Iis+ArADvA1nxGYvwuxXgeSArPmMRZivA80BWfAZkBXgfyIrPgKwA7wNZ8RmQFeB9ICs+o97KSl5enjwWwKtAVnwGyYqvvSOD49y5c6tXr5bHAngVyIrPOHjwYHFxsXzZucLrr78uh1yBNCUzM/Nf//qXPBbAq0BW/MfWrVtfcB2aJXXu3Jn+yzvCz6pVq/7973/LowA8DGQF2OLNN9+Mi4uj//IOAExAVoAtxo4d+/jjj9N/eQcAJiArIDDffffd7bffXl1dTf8pLe8G4HogKyAwf/nLX5566ilK0H9Ky7sBuB7ICgjMiBEj9u/fTwn6T2l5NwDXA1kBAbhw4ULv3r3/93//l9L0n9IUkTMBIABZAQFYvnx5ZmYm36Q0RYT9AMhAVkAAhgwZcuTIEb5JaYoI+wGQgawAK7744ovk5OT/+7//4xFKU4TiQi4ArgOyAqxg5mx2ggBwICtAi25iYp7CACACWQFaLD5GkT5wAUAEsgK0WHzpI309BIAIZAWosf6JivhjFgAkICtATcAf1PKf3gIgAVkBagLe/sNvFAJAArICFPzP//xPwJuV2W3NlFPeAeo9kBWg4L333rNjrUJ5KKccBfUeyApQMHnyZDtGcJSHcspRUO+BrAAZwzA6d+4cZw/KSfnlKkD9BrIC7EIiIocAUAFZAXaBrACbQFaAXSArwCaQFWAXyAqwCWQF2AWyAmwCWQF2gawAm0BWgF1eeOEFOQSACsgKAMBhICsAAIeBrAAAHAayAgBwGMgKAMBhICsAAIeBrAC74AtmYBPICrALfg4HbAJZAXaBrACbQFaAXSArwCaQFWAXyAqwCWQF2AWyAmwCWQF2gawAm0BWgF3wBTOwCWQFAOAwkBUAgMNAVgAADgNZAQA4DGQFAOAwkBUAgMNAVoBd8AUzsAlkBdgFP4cDNoGsALtAVoBNICvALpAVYBPICrALZAXYBLIC7AJZATaBrAC7QFaATSArwC74ghnYBLICAHAYyAoAwGEgKwAAh4GsAAAcRi0rVVVVS5cuXbx48SIAANBz8OBBWT50spKXl/fNN98YAABgSXFx8ebNmyUBUcsKiZBcGgAAVOTm5koCAlkBAISE+QdNkBUAQEhAViKWyqrKrTvenjbzibuG/KpHrx5xcXH0f+CQQdNnpe3cvbO6ulouAIBDQFYik03vvNF/0C/7/Sp5Ssbj+W8Vrt332tb/3k7/KU2RfgOT77r7V9tLtsvFAHACyEqkce37a1Ofmta7b+L8l7NISnR/tDexb5+Zs2dWVlbKVQAQGpCViOL777+/f/SIex8YuvHwZrOUSH+U594Hho15+CEoC3AWyEpEMXXG46QpW46/axYR5R/lHPrAsNlzZssVARACkJXIoXh7Ma19Xv848DxF/KP8d/RLKi0tlasDIFggKxFCdXX1gLvvsv48RfdHpe5Jucfl74Y++ugjOWSD4EoBl4GsRAg7d+/sNzDZLBlv/n3r2NTx7Tq1b9ykcdfu8XPyn/nV8IE9+yZI2e4afNfevXvlSk2Ul5enpqZ26NChadOmiYmJGzZskHPYpnHjxnLIBsGVAi4DWYkQ0mb919SMx82a8ovE26NUSDkfz5z+TOYzcqXXc+nSpYSEhLy8vDNnzly+fHnbtm3t27dfu3atnM8e1Ac5ZIPgSgGXgaxECIOGDMrfXCiJxfgnH6XrsEVMi/RlmW8cKX55x+r7xt6vlBUqe++998qVXk9GRsb8+fPFyPbt2/v378/SVVVV6enpcXFxNJG5++67T506xeLUVmFhYadOnW644Yaf//znGzduZEEOy/bMM8+0adPm5ptvnjlz5vfff0+RESNGFBcXs72bNm0aOnSouRTwJpCVCKFnr55rP9ggiUWHrrfQFfhM4TweKT6+7daEbt3v6CHlpLK9E3vLlV5Pjx49Dh06JAX5JzI5OTmLFy++XEN2dvaECRNYnDowaNCgY8eOUc7XX3+dlIXHWYJYtWrVsmXLqOA//vGPF198kdIUPH36dFJS0rVr12iWRKr0ySefSKWAZ4GsRAi3dLzlrWPvSGLxs4Y/o+vwzSPFUtz8R2U7duwoV3o9NA359ttv5eiPkOiQKLD0119/zWujDjBF4JtSgujXr59ou9GzZ0+WIJ3KysqiSdDkyZNZBLLiCyArEULP3gnm2UqDBg3oOnzrM1luzH9UNjExUa70eqKjo69evSpHf6Rx48Zs8WLU/CqvSZMmLE0dEEspZaVly5Y1K5sf4GUrKytJcWJiYkinzKWAZ4GsRAh3p9xj/mwltt1NdB0uXJ1t1hHpr3DLS0OHDpUrvZ7evXufPHlSjNDyZN26dSzdvHlzLiukIzfccANLS0KglJUbb7zxypUrfJNDsjJs2LD4+Phz586xCGTFF0BWIoQ5GXPM3wSN/s+H6DqMiW01M3f2q/v/SiudZVtXJg/pf2vPblLOWQv+lJmZKVd6PbQYoZeLGFmxYsU999zD0n369BEXQfybYDuyQoL1xRdf8E0OLYKWL19eUFCARZC/gKxECHv37v3loAGSWGz6dIvyC+Z+9/SXcg6+Z3DA362Ul5d369YtNzf37NmzFy9eXLNmTevWrd9//322l65/8SPbhIQEFo/SyArNbj799FOmRMuWLfvzn/9Mcx/aXLBgAZOqsrKy5OTkyhqoNvYBjVgKeBbISoRQXV19T8oQ869sNx99e9KfJt+a0K1ps6bsF3F/mPVHCop5lv7lhV//+td2fmV76tSpMWPGxMbGRkdHDxgwYMeOHXxXVVXVjBkzWrZsGRMTM3r06M8//5zFdbKSlZXVrFkzqseoKfv000+TSFHkt7/97VdffWXUfMH89ttvs8xbt25lazSxFPAskJXIobS0NKnfnbW9J+jNT4r79++Pe4KAg0BWIor09PT7fv9b+3cwbz2x/cGHHszIyJArAiAEICsRRWVl5bjx4+4fNcKO38pbn77z4EOjx48fD78V4CyQlUiDNIJmH/2S++WsyjVLCft7+/P3lq9bQWsfyglNAY4DWYlMSktLU1JSBt89eNb82UVvr3ntw00kJa8f2PyXd9dl/PmZe4bcQ3vxeQoIE5CViKW6unrv3r2ZmZnDhg3r06dPXFwc/ac0RShu53sfAIIDsgIAcBjICgDAYSArAACHgawAABymFrKybt26RQAAYMn69etrISuyIgEAgArICgDAYSArAACHgawAABwGsgIAcBjICgDAYSArAACHgaz4mOCecx5cKQDs45KsXO/Q/AN81/V5w4I7zdmp3I9PR7fu86VLl2bMmNGxY0equUuXLjNnzhSfUkZjsmrVKiH7defCjPWuhx56SDTQJT7++OPhw4dbFLFAzl0D33V9XnW3GzZsGBcXN3HiRBoE817OT7UYxubNmymyZcsWMSjl50+VtUaqWcT6pBiBzqmh76e4qcMlWeGYu2WOhAPeSlibC1i5H5+Obt3nK1euJCcnp6WlHTly5OrVq5R5586dKSkp4mVGxSsqKniF5g7YiTDoYhg5cqQYmT59+t///ncxoitrgbmIRUTc9f3333/xxReTJ08mZTHvVfLb3/6WMt9///1iUCr1+uuv09UeUFl0bQU8KdbnlGGnnzpClZVPetxh/pMzCZi7FVXz6O/bbrtNfPQ3i5eWlrZt23bQoEEsYn76N/HZZ5/RkdOgNGrU6Pbbb3/jjTdYnDLQyabMtGv16tXK14SI7snk33333bhx46Kjo3v27Pnhhx+yoK5RZeX07soPwWtPR6eOSW/+Zqz7vHDhwgULFoh7iZUrV9KBsDQ1lJ+fP3v2bL6Xd7hWEQ51+K9//StL01TF/Hgji7I6zEUsIuZd58+fb9myJUub94qUlZXRy4ZeVDRNoDSPm0uJz6vWYS7FCHhSrM+pUZt+KnFAVgJGRMzdosjgwYOPHz9uXD+UFB87diy9y50+fdrQPP2boPkbvWop28WLF2ko6Zpk8eeff/7ZZ5+lOElAr169LF4TDN2TyekEFBUVkfyvWLGCPxtY16hUORMU8dL12tPRzT00Y93n3r17iy87xsmTJ8XnBFVWVt555526R3zYjIhkZWWRStJQ0MjT/EXaa11WibmIRcS8i2YEsbGxLG3eK0LST6JPiVmzZomCqCylDIroMgQ8Kdbn1KhlP814Qlboyhc3eYLei3hc9/RvERLXBg0asDRdTl9++SVLkxJbvCYYuieTd+/eXWzXjNgor1x3uXrz6ei63jKs+0x75VDNmPBH+bDm3nvvPb54MXdAGTHD99JlTFcOzd0KCgqEQj8g5rSJuYjcdg18F89G7yt0amh4n3jiiYAFSV7pzZ+92uk/pbmRMM8jogyK6DIEPCnW57S2/TTjCVkRXZp5BkqIz+XVPf2beP/99+m8Pvjgg126dOHFaeDoXZqlL1y4IFbLEhK6J5NTQmkirWxUTJgn54a3n45Ob1DKXdZ9pnE276VJkyQrxAMPPFBSUiJGOHYiItTiwIEDqYmwyoou8uMY/wCp/5w5c/ggmAtyaLFM3eablN68eTNLK0spgyK6DAFPivU5rW0/zXhCVpSbUlz39G9aMcbHx9MKZd++fadOneKlRFmh1YquWo7uyeTNmjWrqqr6KV8NukZ5Qvf+782no+t6y7DuM+1lq1SRL774wvywVFoE0VKI+mPugJ2ICM2/SCVpEtq5c+c6XATREdGgiXNqca+Z3/zmN1HXc99997FdylLKoIguQ8CTYn1Oa9tPM76RFd3Tv9u2bcsXOzQd5aX69u179uxZlt6zZ4+uWo7uyeS0COKfn3N0jUqVmy9Xrz0d3dxDM9Z9zsnJMc/LVq9eTW/gLC02Rwt16on5FNiJcKir/JO17Ozs6dOnX7/fqqwOcxGLiLiLpgBDhgwRv501F2TQ2WEfgvIIvQ20a9eOXf/mUqF8ZBvwpFic09r2U4kDsmL+kzMJmLslRZQnz9A8/Zug9+FVq1bRkR88eFD8aJaC9J5GZ51UOTk5WVctR/dk8rlz59KLhuonLedBXaPKytmly9Jeezq6taAwrPtMU8LBgwdTb6ktmmrRenPLli00P+JLd7Hz7HtN8yjZiTCoM1Q5X5ZS6z179jx69KiYR1fWAnMRi4i0iw6c1kEnTpxQ7uXQlfzcc89JQTpl7JGSUqmNGzfSdJuURQya0bUV8KRYnNNa9VNHqLJSW8zd0l0zUlz59G+j5oE4PXr0oHNAlzeNjliKhpWmFVQkLy9PrNYMq1/5ZHK6wkeOHNmkSZPExMS//e1vLKhrlCcs8OPT0S36bNS8m9FrrmvXrvyXV/RK5Xulzr/yyivmUVJGzBg1P4d79913xZx0gOzncByWs1aYi1hEzLuoDwMHDmSL5et6/COkg/SCMX9K+s0339B0mC0MRWieElBTDE1bbJf1STE057S2/WRImQ33ZQUAEPFAVgAADuOGrMhzJgBAZCFd8m7ICgCgXgFZAQA4DGQFAOAwvpSV4IyIgisFAKgt7slKQNsY+wRhRGToS4mfPDVv3nz48OHirY+Gxs/m4sWLU6dOjYuLa9SoUXx8/Lx588TbscyIZZVYj4+1K0+Uh62SQD3EJVmxYxtjn+BeyrpSPF5VVfXPf/6TrthevXqJGZR+NqNGjVqyZMmFCxdITc6fP5+Wlvb000+zXbqGLLAen4CuPFF+sEoC9YdQZcX8y33lj/etbWPcty8SkSJ0Vbdo0YJv6vxsqKviZUxyYNNxQ4n1+AR05Ynyg1USqD84ICsBI0Yg2xj37YtEeJxaoTfqZ599VrwnQudnQ0eUlZUl/SCaoWvIAuvxCejKE+UHqyRQf3BJVqxtY+rKvogRdT0NGjTgn1NU6v1sDhw40KVLl0aNGg0fPpwGkd96Z66QwfcqsR6fpoFceVj9HrdKAvUHl2TF2jambu2LeJzNVvLy8rp3784iFn42Rs3abe/evbQ8SUlJadiwIQkZi+sassB6fAK68vAWvWyVBOoPLsmKtW1MXdkXMaR4RUUFzUFY2sLPRmLXrl0052JpXUMWWI9PQFce3qKXrZJA/cElWbGwjTHqwr5IRIqfPXuWWV5b+9nExsaKu8QPenUNWWA9PgFdecQWPWuVBOoPDsiK+U/OZGkbY9SFfZGI2ArtnT17NruKrP1s6OqlDIcPH6Y+U3P03j5lyhSWJ4hLznp8ArryiC161ioJ1B9ClRX7KG1jGHVrXxT1Iw0aNKDukaaQUgT0syHmzp1LiyxaMbVt2zYtLY2vxXiFItdXo8BifIxArjxS/d60SgL1B/dkBQBQT4CsAAAcxg1ZkefZIBKRzzqox7ghKwCAegVkBQDgMJAVAIDDQFYAAA5T97IC0zYAIgyXZMXCS01n2mbgN1cA+BOXZMVZLzUAgJcJVVbMNwQp7wnSealJP3yg/6WlpW3btmXPQueKE6WyiWNkZma2bt26Q4cOyvvrDH3Zzz777P7772/fvj1NoG6//fY33niD5y8qKmrTpg318NVXX83KyoqJiZEaNfvRAQA4DshKwIhh20uN0mPHjiUBYncJi7KitIl78cUXJ06ceO7cOdKIXr166WRFWTYxMTE/P5/aol4tWLCA3bXM8j/88MPl5eUkLk2aNHnkkUcog1hQ6UcHAOC4JCvWXmpi+uOPPzbvitLYxPXr1+/EiRMsXVJSopMVZVmR7777rkGDBixNGdi9jhSkNHd7FBtV+tEBABguyYphz0uN0qInkygrSps4Wltx0xOaUyglQ1eWIHVLT09/8MEHSfLEtvi6htLcUJZn0PnRAQAY7smKiM5LTUyLm7p4ixYtuKx8++23UjaGruzKlSvj4+NXrFixb9++U6dOKdtSpnV+dAAAhkuyYtNLTScBunj//v25OUtpaWmtZKVt27ZffvklS9MqSdmWMq3zowMAMByQFfOfnMnSS000bdNJgC6+Zs2aJ5988tKlSyQuffv2rZWs0FRl1apVNO84ePCg+HGvUkrEtNKPDgDACVVWbGLhpSaatukkQBcn5syZ06pVq86dO9Nyhltbi+jK0uyGFmJNmzYlTSF5UralTCv96AAAHJdkxQXOnj3LHzAEAKhD/C0r7dq1o4kGTXzKy8tpNfTUU0/JOQAAruNvWSkpKUlKSqKFTGxsbGpqqvipMACgrvC3rAAAPAhkBQDgMJAVAIDD+FJWgnN+Cq6U43ikGwCED/dkpby8PDU1tUOHDk2bNk1MTNywYYOcwzYWzk8WBFfKcTzSDQDCh0uywh4MnJeXd+bMmcuXL2/btq19+/Zr166V89lD+oWbTYIr5Tge6QYA4cMlWcnIyJg/f74Y2b59e//+/Vm6qqoqPT09Li6OJjJ33333qVOnWDxK5cAUJcCymU2VRowYUVxczPZu2rRp6NCh5lIciqxYseKmm25q1arVtGnT+LfUFj5PoteUoeoAy2an8wBEHqHKivmGIOU9QT169Dh06JAU5J4DOTk5ixcvvlxDdnb2hAkTWDxK48AkXpNKU6XTp08nJSVdu3aNZkl0YTO/Fd2VTPHu3bt/+umnFRUVpG60UmNxC58n0WtK2QGWLWDnAYhIHJCVgBGjxhjl22+/laM/QqLDbjUkvv76a/4b/CiNA5N4ZepMlUinsrKySCYmT57MIrrrmeJbt25l6bKyMu7YICL5PIleU7oO2Ok8ABGJS7ISHR0teilJNG7cmK8dKMGNkaI0DkzilakzVaqsrKQLPiYmhnTKXEqE4uXl5SxNzd144418l87nSfRb0XUgykbnAYhIXJKV3r17nzx5UozQ8mTdunUs3bx5cy4rdCnecMMNLC1dgcorU2eqRLIybNiw+Pj4c+fOsYjueqY4dYalaVZCEyuWtuPzZOg7YKfzAEQkLskKvedTS2KELlfuVNKnTx9xEcS/grVzZepMlWgRtHz58oKCAjuLoN27d7M0VdWuXTuWtuPzZOg7YKfzAEQkLskKrTK6deuWm5t79uzZixcvrlmzpnXr1twom65/8SPbhIQEFtddmaLzk9JUqaysLDk5ubIGqo19xiGWEqFq+/btS5MpqmTWrFm05GFxOz5PhqYD5mzKzgMQkTggK+Y/OVMNtI4YM2ZMbGxsdHT0gAEDduzYwXdVVVXNmDGjZcuWMTExo0eP5j6SuitTdH5SmiqNGDHi7bffZpm3bt06dOhQqZQIVUsyd3MNqampfEFkx+fJ0HTAnE3ZeQAiklBlJQLAqgQAZ4GsQFYAcBjICmQFAIeBrAAAHAayAgBwGMgKAMBhICsAAIeBrIBwAR88JfVhWFySFfO3LeaIHXSlevfu/corr0jBVatWJSYmSsHQsbC503XPQb777rtp06bddNNNbdq0eeyxxy5evCjnsOTSpUszZszo2LFj48aNu3TpMnPmTPHOcl3/dXFrHPHBC65pJZcvX54yZUrbtm1bt249fvx4fn+p4cNh8TgRIisUv+OOOy5cuMAjdL0lJCTo8geNtc2d482ZmTVrFl0AFRUVdLCUoMtDzqHnypUrycnJaWlpR44cuXr1Kh3Lzp07U1JS+A+Lne2/I7U5UgmDDpzdI0JD98QTT4wdO5bF/TgsHidUWTH/cl/5433zUPKIzoSNWR81adKkX79+paWlvFRhYeFtt90mWq6x+Ny5c/Pz89mmUXP/8Zw5cwK2EqWxhhPZsWMHN4KztrkL2JzyoJRBEbEDt9xyS1lZGUuTdLZo0YKlKYN4P4SShQsXLliwQArSQKWnp7M09f/EiROjR49u3rz5vffey21lxNOntMKjcRs3blx0dHTPnj0//PBDVoRj2OueuRLD0SGlslwpvvnmm5YtW7J0HQ5LpOKArASMGJayojNho5cFvTgqKytplREfH89LDR48+Pjx48aPLx0ep5ddUlIS2zRqXsfibce6VqI01nAMdj2Ll4S1zV3A5pQHpQwyzB0Qee+997p168bS1jkZtFTkksQ5efKkeG8npY8ePUpv4HRd0SXB4yyhs8IjtS0qKqJSpNGikRVLGPa6Z12JU0PKoP7TYoel63BYIhX3ZMWMnOl6EzbSfjol1+//QT7ETTHRp0+fw4cPGzWmk+wsBmwlSmMNp7sMrG3uAjanPChlUNcBTklJCb030lxJDFqX4lYyItQ9ft8j9Z+qZWl6P6fx5HGW0FnhkTSLcYZ5NKy7Z7MSI9ghFaHrnE9G6nxYIg/3ZMUiojRh27x5c1TNuwRJPr3t8FI8zTbFRFZWFq2QjZppLa2JxAyGppUojTUcxTMzM1laxNrmLmBzyoNSBnUdYNBlGRsbq7w4jZoJudgTDl0/5s7Te6x4/XDRpJ7QnJ/HWUJnhUcJ8bwwlH0w9N0LWEmIQ8o5c+YMraf4UHhkWCKJupcVnQkbQYvY4uLiAQMGTJ8+XSolbbIEFW/bti2tbGnSwSY1AVuJ0ljD6d5XrW3uAjZnqA5KGdR1gNG3b99NmzbJ0UClqPPM1lvkiy++EGf7dDmx9LVr15o1a8bjLKGzwqOcVVVVUtB80q27Z11J6EPKoP6PGjWK+1cYHhiWyKPuZUVnwsY5ePCgqALiLnOcfaTPv1cO2EqUxhqOYb4MrG3uAjbHEQ/KImjuAKNRo0bSp8u6nCI5OTnmGdDq1avnzJnD0tT6/v37WZr637VrVx5nCZ0VHs32uTpzxGOx0z3rShwZ0q+//vqxxx77+9//LmSpy2GJVByQFfOfnEk1lDyiM2GjU7J+/XqaemzcuFH3NAy+yRO5ubmUptWQFNe1EqWxhhNhlwRLW9vcBWxOeVDKoIjYAR3WVyyD3mkHDx6cnZ1dVlZGzV24cGHLli3Dhg3jM3zq58CBA+mdvKKiYt68eZMmTeJxltBZ4dGSc8OGDXS8NHHjb/KiD56d7ikrcXBId+3a1b9/f/PEpA6HJVIJVVZsIsmBGNGZsO3du5ciDRs2ZJ/qS6WkTZ6gN5Of/exnfJ0SsJUojTWcBRY2dwGbUx6UMmiNeTwtEDPTSzwjI4Peb/nvvsQf1FHO/Px8EkrqeUpKCv9+hNegs8KjNcLIkSObNGlC88S//e1vLFhbHzxlJQ4OaadOnaKuh8UNbw+LH3FJVjyL+NqKVPi7a9DUh1EKAgyLDshK5L8y6I1UDtmG3sbF3wcBBobFGshK5MtKKKSnpzdq1Mjm0qz+gGGxpr7LCgDAcSArAACHgawAABwGsgIAcBjIimNEmOtXhB2O42B8LHBJVsxfuJgjdtCVcs0d7uLFi1OnTo2Li2vUqFF8fPy8efP4vWQWrl+6btcWmJgZMHnzAxEiK1FuucONGjVqyZIl1BCpyfnz59PS0vivQhxvS+IKTMxqgMmb9wlVVsw3BNX2nqBauX5F1bU7XNOmTSsqKviuM2fOxMbGGjX1cNgm9ZneUVlB3g3W/06dOkn9JzIzM+ntt0OHDgUFBTy/SB2amNm5o0d3aBYjX1RURJ2hAXz11VezsrJiYmKkMVH2FiZv3scBWQkYMa4/c1KkVq5fUR5wh6MLQGlMLR4jpeldlOpkN7bxXZSg2o4dO1ZdXS32/8UXX5w4ceK5c+foKMT76ETq0MTMPA5mdIdmMfIPP/wwLWGoaXrzeOSRRyiDWFDXWxGYvHkT92TFjJzJhutXVF27wx04cIBex/TGO3z4cBo7fu+ycX1blOZvhuIuSpDYmeM0I6M3UpYuKSlRdrvOTcx0Y8LQHZqINPKff/45C1LafP+errciMHnzJu7JikXEvutXVF27wxk1t6vu3buX3nhp3d6wYUNa57O42Balrwi+PmJzohEZj9Mlwddf9KYtVsXxiImZztstSnNohn7k+SqD0mY/YF1vOTB58yx1Lyu1cv2S6uGbLOGCO5zErl27+ARH7Jt1P83xFi1acFmhl755uAwPmJhZj4nu0CxG3pxZTOt6y7gCkzcPU/eyUivXL91rlyfC7Q4XGxsrfqxLL1P+SA3ltSFt6uL9+/dnKwKjxljEPAhGnZqYmcfBjO7QLEaeJXRpXW8NmLx5HgdkxfwnZ1KdAx6pleuX7rXLE+F2h6M8NJ8/fPgwCUpZWRk1NGXKFLZLdP0K2E9pc82aNU8++ST1gcSF+mMeLqNOTcysBYWhOzSLkTdnFtO63sLkzfuEKis2MV8nPFIr1y/da5cnwu0OR2tsepHRpdKoUSN6H6aZEZ82i65fAftp3qQ31VatWnXu3JnWC1S5Ms8VD5uY6Q7NYuTNmcW0rrcwefM+LsmKZxFflB7h7NmzHTt25Jvwdgs3GB/Hgax44iXVrl07eienN9vy8nJaDT311FN8F7zdwgfGJ0xAVjwhKyUlJUlJSTQ5j42NpbWY8se+QQATM2swPmGivssKAMBxICsAAIeBrAAAHKYWsrJu3bpFAABgyfr162shK7IiAQCACsgKAMBhICsAAIeBrAAAHAayAgBwGMgKAMBhICsAAIfxpawE9+Sn4EoFh5tthY6/egu8j3uyUl5enpqa2qFDh6ZNmyYmJm7YsEHOYZvgnvwUXKngsNmWxZjo7oHk8YAZiHfffffee+9laZcfnPbrX/+aWpejoH7gkqxcunQpISEhLy/vzJkzly9f3rZtW/v27deuXSvns0dwr/XgSgWHnbasxyRgDboMYvyOO+7gtkMuPziN2qXW5SioHzggK1tO7O9X9GSLRaPoP6Xl3TVkZGTMnz9fjGzfvr1///4sXVVVlZ6eTm+k9KZ99913nzp1isWjVE+0ihJg2cyPjBoxYkRxcTHbu2nTpqFDh5pLccwPlzJqWhGfH2aoWjE0z9Yyt6Usaz0mUfoHrUkJqnDy5MlUOXVj9erVPL5nz55f/vKXLG3UxYPTBgwYsHfvXr4J6g+hysqbx/fGLf2PJ959NueD3MUfvNI5f4JSWXr06HHo0CEpyJ/hkJOTwx5/SWRnZ0+YMIHFozRPtBJfu8pHRp0+fTopKenatWs0I6ArgT2/Riwlonu4lPj8MGUrhuWztVjCoqz1mETpH7QmJZ5//vlnn32W+iA9uuyJJ56g6QlLG3Xx4LTc3FzqA98E9YdQZaV74cTJW/+U80EO+yNloTmLnKnmrVJ8yLYEveK51fDXX3/NLRejNE+0El+7ukdGkU7RVUSTIHonZxGdrOgeLiU+P0zXioj0bC0e15W1HpMoywetiQkSUG5tT/MdHhdXQEZdPDjt4MGDWAfVT0KVlejsEfP3ZHFZWfLhCy0XjZIzUbboaPOjoTiNGzfmSwNK8Mc+RWmeaCW+dnWPjKqsrKRXfExMDOmUuZSI7uFS4iNjdK0Y+mdr8Qy6stZjEmX5oDUxQfJE8zKWvnDhAo9Tu9LcxOUHp5GY0vjzTVB/CFVWuhSMFWcrT26br5yt9O7dm7vhM2h5sm7dOpZu3rw5lxV67dLqnaXF16i4KcZ1j4yia3LYsGHx8fE0P2cRqTaOnYdL6Vqx82wtXVnrMQl47OKFzWWFFi88TsLBR9WMCw9Oo9apD3wT1B9ClZWcD15pkzvqP9+es2BPFv1vt/Rh5Wcr9H5OLYkRuhT5c1j69OkjLoL49526l7IY1z0yit6Kly9fXlBQYGcRZH6Oh5RZ14qdZ2vpylqPScBj54m+ffuePXuWpffs2cPjbdq0OX/+PEsbdfHgNDqn7FNhUN8IVVaqqqsWfbCqa8G46Ozf9Vgx6a3jH8g5aigvL+/WrVtubi5dADRVXrNmTevWrfnynq5/8SNb8emWP1UhbIpPflI+MqqsrCw5ObmyBqqNfSige16U8uFSUtPKVgz9s7UC9tAINCa6YzcnqANZWVk0dDT3oaPm8aSkpA8++Ol0uP/gNGr9zjvv5Jug/hCqrNiH1ghjxoyht6/o6OgBAwaIT8mjNciMGTNatmxJS/HRo0fzdz/dS1l88pPykVEjRox4++23WeatW7cOHTpUKiVyWfVwKalpZSuG/tlaAXvIsBgT3bGbEwRpMc2bqIm8vDwep6tdPGvuPziNWqfTyjdB/cE9WQEus3v3bpo+yNFwIj04jaYq+/btE/aD+gJkJZKhORT/gV+Y0D04jdrt06fP9XlBfQGyEsnQAnDIkCFy1FF0D06jdvk6FNQ3ICsAAIeBrAAAHAayAgBwGMgKAMBhfCkrwbmZBVcKAFBb3JMVCye02mLhZmaBrpT0Qy/HES3a4JkG6gMuyYq1E1ptCU4IdKV0cacQDQrgmQbqAw7IyqbP3u/94pTmi37f9+XpyvsMjUBOaHXrDkeREydOjB49unnz5jSt4G4jSuc340dTpSZNmvTr16+0tJTXY+6GYbJoM+CZBuoBocrKq0e2xy55kN3BnLZ9QccXHlEqi7UTWt26w1GcZlJHjx69cuXKypUrx40bx+I65zfqBnWmsrKS1nHx8fEsqOyGYbJoM+CZBuoBocrKrcseEf1W0kuXKP1WrJ3Q6tYdjuIlJSUsTVUpf3IuOr/RlKSoqOj6/dpuSBZtBjzTQD0gVFmR3OGe27fYd+5wFOeSR6VoKcR3KZ3fNm/eHFUzwaGVHTdw03XDbNEGzzQQ8YQqK/HLxouzlVk7cpSzFWsntLp1h6M4LV5YmtZNzZo1Y2md8xvx8ccfFxcXDxgwYPr06Syi64bZog2eaSDiCVVWXvmkuM2SH9zhpr3zzC0vjFd+tmLthFa37nAU37//hz5/+eWXXbt2ZWmd8xuHljM8qOuGZNFmwDMN1ANClRVi/d9LeqyYdGPOyKSXn1BqihHICa1u3eGo2oEDB3711VcVFRXz5s2bNGkSi+uc37p3775+/XqadGzcuJF/iqzshmGyaDPgmQbqAQ7Iik0snNDq1h2Oqs3Pz6camjZtmpKSQpLE4jrnt71791KEFjLsKyEWVHbDMFm0GfBMA/UA92SlfmK2aINnGoh4ICthR7Rog2caqA+4IStRQIM8UgBEBG7ICgCgXgFZAQA4DGQFAOAwvpSV4AyZgisVVjzYJQBCxz1Z8ayNUx0idQmGTyAycElWvGzjVIdIXYLhE4gMXJIVL9s4fffdd+PGjYuOju7Zsyf/gYmUjW9SorS0tG3btoMGDTJvGqrOsGwBDwSGTyBicEBWln/0erfljzbLeaDXyv/U3RPkZRsnkryioqIrV66sWLGC+6RImfkmJcaOHVtRUUFNmDeVnWHZAh4IDJ9AxBCqrOQdWNcm94c7mOl/+7yxSmXxso1T9+7dxRoYFrLCXSnNm7rO2DkQGD6BiCFUWelaME70W/mv7X9W+q142caJinA3Jo6UWWxa9FWRNnWdibJ3IDB8ApFBqLIiucMt2v+80h3OyzZOzZo1q6qqkoJiZuqbsmnzpq4zulJiHIZPIGIIVVZ+sfwxcbby5z2FytmKl22caBFEGicFxczHjh1TNm3e1HVGV0qMw/AJRAyhysrGY7vbPj+Gfbby7K4XOuU/qvxsxcs2TnPnzt2wYQPNMmj2xJtmXirV1dWkKUOGDFEKgXlT2RlzNuWBwPAJRAyhygpBOnLny6ktFo2ieYpSUxietXEiLRs5cmSTJk0SExP5h6bs+xpajpEabtq0yaasKDtjzqY8EBg+gYjBAVkBjgDDJxAxQFY8BAyfQGTghqxEgZCRxxQAD+OGrAAA6hWQFQCAw0BWAAAOA1kBADiML2UlOFO14EoFh5ttMYJrMbhSAFjjnqzUK3c4m215bUxgTwccwSVZqW/ucHba8uCYwJ4OOIIDsmLnx/t+dIezY/v22Wef3X///SQHjRo1uv3229944w1WVmpLWdZrYwJ7OuAUocqKeKthRunzulsN/egOZ8f2jVYu+fn5lO3ixYsLFiwgFeDFWcKirNfGBPZ0wClClZXblk8QjREW7FmuNEbwozucHds3EZr1NGjQgKXt9NBrYwJ7OuAUocqKZOOU88ESpY2TH93h7Ni+Ee+//z5dqA8++GCXLl14E2JburJeGxPY0wGnCFVWJNPJp7YvVM5WfO0OZ+hbWblyJTVBq6d9+/adOnWqVj302pjAng44Raiykn/wNTsW2b52hzP0rbRt2/bLL79kaVqb1KqHXhsT2NMBpwhVVogVhzbdtnxCs5wHer84Rakphg/d4aSmla0Q9M6/atUqKnvw4MFevXrZ76HhvTGBPR1wCgdkxSb+coeTmla2QpSWlvbo0aNp06akKaQL9nvI8NSYwJ4OOIV7sgI8DuzpgFNAVsBPwJ4OOAJkBfwELY6GDBnC0pTgiyYAagVkBQDgMJAVAIDDQFYAAA4DWQEAOIwvZSU4T7PgSgWHm20xgmvRzVKg/uCerHjNCS2s2GzLa2MiusNdvHhx6tSpcXFxjRo1io+PnzdvHr8h06It6dd69oEZXSThkqx40AktrNhpy4NjInojjBo1asmSJRcuXCA1OX/+fFpa2tNPP812BdeWNTCjiyQckJVXj2zvsWLSjTkj73jpcd09QV5zQhOBOxwrJbnDUbsVFRV8k7SP3XYolYq6fqBYkCXM/WRkZma2bt2a5mgFBQU8vwEzuggiVFkpOrylzZIf7mCe+k7GLS+MVyqL15zQROAOx5Dc4ah7WVlZkgMLQywlDZQoK8p+Un8mTpx47tw5UmTx5kwDZnQRRKiyEr9svOi38vSObKXfitec0ETgDseQ3OEOHDjQpUsXmoUNHz6cXiX81mrDJCviQIn9UfaT+nbixAmWLikpEauCGV3EEKqsSO5wz+1bDHc4w14PvTYmZnc4WojRqoRmYSkpKQ0bNiRVYnGxVNT1AyX2R9lPElPSX5am5sSqYEYXMYQqK7cue0ScrWSUPq+crXjNCU0E7nAMszucyK5du2gCxdJiKTv9ETdbtGjBZYUma2I2mNFFDKHKyroj78UueZB9tpK2fUHHFx5RfrbiNSc0EbjDMSR3uNjYWH79GzWuNKQILC2WstMfcbN///7cO6a0tFTM9g+Y0UUKocoK8ebxvb1fnNJ80e/7Fk1XaorhPSc0EbjDsVKSO9ysWbNI+A4fPkwdoLJZWVlTpkwxt6Xrjy5Oh/nkk09S30hc+vbtK2aDGV3E4ICs2MRTTmgil+EOp3KHI/UhwSXdbNSoEU3K0tLS+MJKLKXrjy5OzJkzp1WrVp07d6bZGVXO44tgRhcpuCcrwOOY3eHCDU3T+DdcBszoIgjICvgJ0R0uTLRr146mdTTxoTUgzY+eeuopFocZXSQBWQE/IbrDhYmSkpKkpCRaNtLSLzU1lX8qDDO6SAKyAgBwGMgKAMBhICsAAIepX7IC/6H6AM5yneNFWZF+8sDRxe0j+g9FCTRv3nz48OGfffaZkFeBhetS6H0TEe2UDBfb1WHRAZtcunRpxowZHTt2pFPQpUuXmTNnirdZ6o5CF7dGPMtwh6oTvCgrOoJ7kYmINfB0VVXVP//5T3qh9+rVi+81Y+26FHrfRMSbid1sV4l1B+xw5cqV5OTktLS0I0eOXL16lSrcuXNnSkoKv2fC2aMQa4M7VJ0Qdlk5f/58u3btxLcmejF17979+++/t3AqYgnKM3ny5Jtvvplex6tXr1a++JiXR5MmTfr161daWsrjZh+jmnnJD7BNntn48Z6XTz75RDI9oDi1fuHCBWvXJV6b0tjJ0PRTGZTslFxrV2THjh3cv8q6A5RN/HGwkoULFy5YsEAKrly5ks4+S9NRnDhxYvTo0TRtpGkad1oQz5H5hBoqCy7pLBtwh6oLQpWVquqq7H1FXQrGRmf/rnvhxLeO/3RTCeexxx7Lzs7mm1TVnDlzDEunIpZ4/vnnn3322YqKCrPlD4cuD7pIKisraWYeHx/PgkofI0MzW6murqZJPjX03HPPGTXXifgDCnr1P/LII0Yg1yVem87YSdlPZdBsp+ROuwwmKKJYWHfAnN9M7969y8rKpODJkyfFG50offToUZrX0ICTUvA4S+hOqM6CiyUYcIdyn1Bl5bl9L7fJ/cEdjv63W/qw+W5DmojSq5z98OnatWu0wGb311o4FbFEUlISvz+Y3iGVskLvYPTCkoI6HyNJVkQaNGhAr12Kv/baazQ/59nocmXvddauS8q+icZOyn4qg5Kdkmvt6gTCugMMXVkG1SCHajrJ78+ioygpKWFpOnH857b86HQnVGfBJW7CHcp9QpUVmqeIfitPbp+v9Fu56667CgsLKUGv5vvuu48FLZyKWIJejiRDLE3LEOUltHnz5qia9zp646r80Y1J52Mk1sDTbLaSl5dHr1Gjpie0lGDz8F27dvF3VGvXJbFmpbGTsp/KoGSn5Fq7FMnMzGRpEesOiNA6RewPh86juQaaeoiywpWL+kNLIR5nCd0J1VlwiZtwh3KfUGVFcod7/kC+0h1u/fr1Xbt2pVcAzVDeeustFgzoVCTKCk3vlS9ZgiSguLiYltDTp09nEZ2PkViDVBvVz++mpavr0UcfpcSYMWMKCgpY0Np1idemM3YyVP1UBiU7Jdfa1c04rDvA0JVlUA3M6VaEZqziIohUhqXpjDdr1ozHWUJ3Qu1YcMEdyn1ClZXuhRPF2Uru/lXK2QqbAixZsoRWOvx1ENCpqG/fvmfPnmXpPXv26GSFQXNdnkHnY2QhK9QQ/zziq6++otfxf//3f7dq1YpPHKxdl3htOmMnjthPZVCyU3KtXYZZIKw7YM5vJicnxzwPWr16NfuIzag5iv37f1g701HQOxCPs4TuhNqx4II7lPuEKiubj++LW/of07fPy/1w6ZL9qzvnTzB/tsKYN28eXavidwoBnYpWrVqVlZVFe+ndMjk52XxVGDUvLJoKkWxt3LiR27srfYwMvf8QRWbPni2+mdNSYsiQIRMnTuQRa9clXpvO2EnZT2VQslNyrV0RJhYsbd0Ba0Fh0ARk8ODBdIrLysqoUVrPbtmyZdiwYXzhQ70dOHAgqTnNGel1MmnSJB5nCd0JVVpwSX5dcIdyn1BlhSAdoRlKi0Wj6L9OU4ya+QhNWc+cOcMjdpyK6LVI78P0Os7Ly1PKyt69e+kqolku+3aDBZU+RobJf4jRoEEDejcjTeHzcGLnzp20iy5RHjEsXZd433TGTsp+KoOSnZLhVrsWWHTAAvF80ZWfkZFB0xD+czjx8yPKmZ+fT+eL+p+SksK/NuI16E7oZZUFl+TXtQjuUK7jgKxEJDQ/ole/HHUF9+2UwgSfdASN8o2ktsAdyn0gKwpock5ThmeeeUbe4RYu2Cm5AH+4ahDQ7EZ8aFnQwB2qToCsKKAp9KBBg8Q1kcu4YKfkcdLT0xs1amRngWYN3KHqBMgKAMBhICsAAIeBrAAAHAayAgBwmPolK5HnGxZhRxRhh1Nv8aKs6H6toIvbJxR3OMrGbnEWI+Kms4gGcRcvXpw6dWpcXFyjRo3i4+PnzZvH768Tj0jCqe7B2A3UFi/Kio7gXqkiYg08bdMdLqrmlt+KigoxIux3GNEeYdSoUUuWLLlw4QKpyfnz59PS0vhPQsLaBwPGbiAoHJAV60e7R4w7XFTND8xnz57Nd/EadM5slKGoqIi6ERsb++qrr2ZlZcXExFBvN27cyCsx99MwGcTR+IhydubMGXbvnPmIaATatm3Lbufh3aNEYWFhp06dbrjhBqn1zMzM1q1bd+jQoaCggOcXgbEbCIJQZWX9kZLYJQ8yG6e07Qs6vvCIWVkiwx2O8lMrd955p/neJZ0zG2V4+OGHqXISFxI+qocyiD8e1fXTbBBHkiTeRMORjmjs2LHUDeZCwHdRgg7q2LFjdKRi69TixIkTz507ZzG8MHYDQRCqrHRb9qhojPDMrqVmY4TIcIdjZd97772RI0fyGng2jujMRhmYBlGQ0uY76HT9lAziDhw40KVLF5oKDR8+nE4Yv3vYMB0RnyyIuyhBszBznFqniQZLl5SUKA8Hxm4gCEKVFcnGKfuDXKWNUwS4w/H8DzzwALuQxNqUzmyU4AdIabMBra6fkkGcUfMBEKkbTYVI8ho2bEizPBYX+0Bp0etI7IZozsbjNLz8EcjUnFgVB8ZuIAhClZX4gvHibGVmyXPm2YoREe5wPD9NQGgpRMfCIzpnNl1zPK3rp2QQJ0FiR8PI0spqpU1dvEWLFlxWSBqUwwtjNxAEocrKyx+/1WbJDxbZU9/JuOWF8ebPVoyIcIcT88+aNUv8jFPnzKZrLmA/JYO42NhYfv0bP366zNLKaqVNXbx///78c6LS0lLl8MLYDQRBqLJCvHpke/fCiTfmjLzjpceVmsLwuzucmJ89kYtHdM5sumuep3X9lAziSMVohXX48GEairKyMhqTKVOmsF26IxI3dfE1a9Y8+eST1DqJCym4cnhh7AaCwAFZsYnf3eGk1l955RUe0TmziUWUaV0/JYM4WnDRRUjiRcs0Go20tDS+rJCOiBcRN3VxgiYdNCPr3LkzreD4GlDKA2M3UFvckxV/UYfucEZdGMTRGpB/E2fA2A2EBmRFQZ27wxmuGMS1a9eO5lY0GSkvL6fjfeqpp/guGLuBUICsKKhzdzjDFYO4kpKSpKQkWrzQGjA1NVX8VDgUYOwGICsAAIeBrAAAHAayAgBwmPolK3AJMup6EOqw9Tpsur7hRVnRfTepi9vHLzZOYt84ciZL3Hd+8ojvlMtNw2tKiRdlRUfQ554j1sDTHrRxCr1m952fPOI75XLT8JpSEnZZgY1TEDZOyiNlWAya6OHksvOTd3yn3G8aXlNmHJCVFw+9edvyCc1yHuj94hTlPUGwcaqtjZPySBkWgyZ6OLns/OQd3yn3m4bXlJlQZSX/4Gttcn+4g5n+t88ba1YW2DjV1sbpup7VwPNYDJro4eSy85N3fKfcbxpeU2ZClZWuBeNEv5Wn3luo9FuBjVNUbWycxJolLAZNsjVx0/nJO75ThutNw2vKTKiyIrnD5XywROkOBxsnZdpOPyUCDpqScDs/ecd3SsKFpr+H15SJUGXltuUTxNnK/PeXKWcrbAoAGycpbaefEgEHjeGy85N3fKfcbxpeU2ZClZXXj+1q+/wY9tlKeumSTvmPmj9bYcDGyZzW9VN5pIyAg8Zw2fnJO75T7jcNrykzocoKQTqS9PITLRaNonmKTlMM2Dip0rp+Ko+UYWfQDNedn7zjO+V+04vgNWXCAVmJSOrWxskXiM5PEeA7ZR+paXhNmYGsKPCCjZM3sXB+8q/vlB10TcNrSglkRYEXbJy8iYXzk399p+ygaxpeU0ogKwAAh4GsAAAcBrICAHAYyAoAwGG8Liv1zdHLa8frtf4AX+CerFy6dGnGjBkdO3bkD8cTTVh0SH5uwh4HsFNheXl5ampqhw4dmjZtmpiYuGHDBjmHo0gOZi63bkbqj2gBZ1h2z87Yho5FB3TAz80FXJKVK1euJCcnp6WlHTly5OrVqyQxO3fuTElJMT/cWyKsr86AlbMf6efl5Z05c+by5cvbtm1r37792rVr5XzOIXbJ/dbNSEMkGiBYdy/g2IaOdQd0wM/NBRyQlS0n9vd9ebr1j/cXLly4YMECKbhy5cr09HSWplfhihUrbrrpplatWk2bNo39LiBKgG2yzBYOaUprLwv3NpYQ2bFjB3MMIzIyMsSbmIwa25f+/fuzNGWjzOJeJTpXMbMvnHS81q1LneebUSbfM3HTULXLspmHTuqPZAFns3u6wVfa+imDIo6cHfi5hZtQZWXTZ+/zWw3nvp/fOX+CUll69+7NTYw4J0+eFO+U6969+6efflpRUUGSQTNbHuf5edrCIU1p7WXh3sYSDPaSFV+OPXr0OHTokJjHqPFnYQlzfjM6VzE7vnDWrUud55tRJt8zcdOiXeXQia2YLeDsdE83+EpbP2WQYR5t6w6Y83Pg5xZuQpWVXyx/TDRGWLhnhdIYgaYVcqjGM43d92XUvAq3bt3K0iRA1h4ZFg5pSmsvEcm9jSV0L0HqdsAPgHRlGTpXMQtfOB60bt1CViTfM3HTol3l0ImtSBZwteoeQxx8pa2fMqgbYesOMJRl4ecWbkKVFcnGadH+55U2TvQKEE23GPSeKcpKeXk5S1POG2+8kcdZQkxbOKQprb0MvXsbT9BShWfmUPfM3VZCKwvlhdRU4ypmxxfOunWpOfFYJN8zcdOiXeXQia1IFnD2u6ccfKWtnzIY5fTZgZ9buAlVVroUjBVnK2nbFyhnK7QIYpNwkS+++EJcBPGPb+k65LMb8dXA0zYd0vhmQPc25XuaUdNtWqmJEerkunXrxIiuLEPnKmbHF866dTEnjYb5oJSbdtoVN8W4ZAFns3u6wTdUtn7KoG6ErTvAUJaFn1u4CVVWlh54NaBFtlHzaYj5DWf16tXMgt+oeRXu3r2bpUlu2rVrx+MsIaZtOqTxTTvubYbqJUjvsTRAYh66PLjZkjm/GZ2rmB1fOOvWxZzHjh3THZS0aaddcVOMSxZwNrunG3yOaOtnETSPtnUHzPk58HMLN6HKClHw0YZblz3SLOeBXiv/U6kpRo3h/uDBg7Ozs8vKyui94sKFC1u2bBk2bBhfG9NrqG/fvvTmQ284s2bNogkziysdvWw6pPFNO+5tHPZyZGlal3Xr1i03N/fs2bM0/1+zZk3r1q25mbvyJSuhcxXT+cKJx2vdOvt0s7q6mjRlyJAhuoOSNnXt6kqJ/ZEs4Ky7F3DwlbZ+yqCII2cHfm7hxgFZsQm9sGjB3LVrV/5zOHGhTq82elncXENqaipfECkdvWw6pPFNO+5tOmjePmbMGHpzoz7QzFz3SrVA6Sqm84UTj9ewbJ19X0MLQLq0Nm3apDsoaVPXrq6U2B/JAs6w7F7AwVfa+imDFlh0wIJF8HMLM+7JijV2rnC/I7mK+Q73LeDCBPzcwg1kJbzoXMV8igsWcOEGfm4uAFkJLzpXMZ/iggVcuIGfmwt4RVYAABEDZAUA4DCQFQCAw0BWAAAO43VZqW/uZPXteEFE4p6sXII7nA3gxgYiAJdkBe5wNpG6BDc24EcckJXX/r6j54o/3pgzMunlJ3T3BMEdLgh3OLixAZ8Sqqy8cri4zZIf7mCe9s4zt7wwXqkscIcLwh0ObmzAp4QqK/HLxot+K7N3LFL6rXD/FBG4w/FsSnc4uLEBnxKqrEjucM/tWwx3OJFQ3OHgxgZ8SqiycuuyR8TZSvrOJcrZCtzhjNq7w8GNDfiUUGXl1SPbY5c8yD5beXL7/I4vPKL8bAXucEbt3eHgxgZ8SqiyQmw8trv3i1OaL/r9nS+nKjXFgDtcUO5wcGMDPsUBWbEJ3OFq6w4HNzbgU9yTFWvsXOF+p7bucHBjAz4FshJeQnSHgxsb8COQlfASojsc3NiAH/GKrAAAIgbICgDAYSArAACH8bqs1Ctbo3AfbLjrry3B9Se4UsBN3JMVn9o4WXdbV4Mubo3k4eQ4Uv1BeDI5i4Vn1cWLF6dOnRoXF9eoUaP4+Ph58+bxW5YsRim4YTfgNeU0LsmKT22cAnY7YA21wtnazIj1B+fJ5CzS8Yp3bI8aNWrJkiUXLlwgNTl//jydgqeffprtCscowWvKWVySFZ/aONnp9okTJ0aPHt28eXN6p/344495nOc32zUZNbdTjhs3Ljo6umfPnuyXKdLBWvwWXiRojyhrTyaxKnGTEqWlpW3btmVDJG0aqnZZNvN5kfojeVbRma2oqOCbpH3sriKpVJSpPyx/lKpFhm7E4DXlIKHKSlV11eL9q7sWjIvO/l2PFZPeOv7TPSwiPrVxstNtSh89epTmNSQ3pBQ8zhI6uya6qouKiqgUianSbMXcGTOheERZezJJIyNermPHjqWRZPejS5sW7SrPi9iK2bMqKytLvL2DI70kpP7wuLJF3YgZ8JpylFBlZdEHq9rk/uAOR//bLX1Yebehf22cxE2G1O2SkhKW/uabb/jPSXnNOrsm0lAxzjB3WNcxRigeUdaeTFJPxMuVz8jMmxbtKs+L2IrkWXXgwIEuXbrQ7HL48OH0GuU3NBqml4TUH55QtqgbMQNeU44Sqqx0KRgr+q08uW2+0m/FpzZOdrrNL87KykpaCvE4S+jsmijBP4Pk8FIS4fCIsvZkkprjm5QQbWKkTYt2ledFbEXyrDJqlrq0KqHZZUpKSsOGDWl+yuJiKXN/eELZom7EDHhNOUqosiK5w+V+mKd0h/OvjVPAbpPKsPS1a9eaNWvG4yyhs2uinHTZSEGp/4a+Y4xQPKKsPZnEnDTU5hFTbtppV9wU45JnlcSuXbusJ7DSpi6uGzEDXlOOEqqs3F74B3G2smhfkXK24lMbJzvd3r//h0UfNdG1a1ceZwmdXRMtgszfgon9MXfGTCgeUdaeTGLOY8eO6UZM2rTTrrgpxiXPqtjYWPH+KdJuUgSWFkvZqVnc1I2YAa8pRwlVVt48vjdu6X88/m5mzge52fte6pw/QfnZik9tnOx0e+DAgV999VVFRcW8efMmTZrE4yyhs2uaO3fuhg0bqEs0QeD9Fw/WWlAYoXhEWXsyMfuV6upq0pQhQ4boRkza1LWrK2XhWUWvARK+w4cP0ymmwc/KypoyZYq5lK5mXVw3Yga8phwlVFkhSEdohtJi0Sj6r9QUhk9tnAJ2Oz8/ny5IqjwlJYV/bSR2VWnXRFfLyJEjmzRpkpiYyD+qFA/WJkF7RBmWnkzs2xNaXZL0bNq0STdi0qauXV0pC8+qyspKUl56P6CDoslmWloaX14pXxIMO/1UjpgBrylHcUBWHMHOFe4j3D+c2npEeQ33PaukEYPXlINAVhyG3lTFH0qElRA9oryGC55VuhGD15SzQFYcJj09nabWdnxhQydEjyiv4YJnlW7E4DXlLF6RFQBAxABZAQA4DGQFAOAwkBUAgMN4XVY8awXm2Y5JeK2frvXHtYaU1G3rdY57smJts6ajbt3hXPYoCwdedoSLUiHkDYz7JwgWdnZwSVauBLJZ0xH0ObBDwMpd9igLB2I/veYIF/oYun+CYGFnBwdkZfPxfX1emtZ80e/7Fk3X/Xjfjs2aB93hXPYos3MfkKEpa6ic2aR+es0RTmpRxOIUi627fIJgYWeTUGXltaM7bloymtk4zSjJ6pT/qFJZ7NisedAdzmWPMnMHzOjKWjiz8bJec4STWhSxOMVi6y6fIFjY2SRUWem2/FHRGCFzV57SGIH7p4h43x3OfY8yQ98Zhq6shTMbDzb1mCNclAm+y+IUi627fIJgYWeTUGVFsnHK/iBXaePU1IbNmgfd4QzXPco49cERTkxLWJxiySnKzRMECzubhCor8QXjxdnKzJLnlLMVOzZrHnSHk3DBo8wI1BldWTvObF5zhJPyiNg8xRLhPkGwsLNJqLKy8tAb3CJ7yjvpHfLGKT9bsWOz5kF3OJc9yswdMKMra8eZzWuOcFIeEZun2OUTBAs7m4QqK8SaT965vfAPzXIe6PPSNKWmGPZs1jzoDueyR5m1oDB0ZXXObF52hFOOP8PmKXb5BMHCziYOyIpNAtqsedAdzn2PMjsoy+qc2bzsCGcx/jZPscsnCBZ2NnFPVqyxeIVFNqG4uoVSFthEHGRY2NkEslIH6DzK7BBKWWATi0GGhZ0dICt1gM6jzA6hlAU2sRhkWNjZwSuyAgCIGCArAACHgawAABwGsgIAcBivy0q9ctkK98EGV39wpUB9xj1Z8aM7nBGo27oadHFrLCzFHEGqH0ZnIEy4JCtX/OkOF7DbAWuoFc7WZkaqH0ZnIEw4ICtFh7f8YvljzXIeSHxxqu6eIJ+6w9np9okTJ0aPHt28eXN65+e2GmLNSvM0OsBx48ZFR0f37NmT/bxKOlg79wcZehsxc6NS/TA6A+EjVFlZ/tHr/A5m+q+7g9mn7nB2uk3po0eP0ryG5IaUgsdZQmeelpGRUVRURKVITJWWS+bOmNHZiOkaFeuH0RkIH6HKSteCcaLfyoz3spR+Kz51h7PT7ZKSEpb+5ptv+G+rec068zTSUDHOMHdY1zGGzkZM16hYP4zOQPgIVVYkd7icD5ZEkjucnW7zT3ArKytpKcTjLKEzT6ME/0yUw0tJhMMpDkZnIHyEKiu3LZ8gzlbm7s5XzlZ86g5np9ukMix97dq1Zs2a8ThL6MzTKCddxlJQ6r+h7xhDZyOma1SsH0ZnIHyEKit/PVp60/M/OO/P3rFI57zvU3c4O93ev/+H46UmunbtyuMsoTNPo0WQ+VswsT/mzpjR2YjpGhXrh9EZCB+hygpBOnLHS483X/R7mqcoNcXwrTucnW4PHDjwq6++qqiomDdv3qRJk3icJXTmaXPnzt2wYQN1ad26dbz/4sFaCwpDZyOma1SsH0ZnIHw4ICs2ueJDdzjDRrfz8/Nbt25NlaekpPCvjcSuKs3T6OodOXJkkyZNEhMT+UenkpObHZQ2YrpGxfphdAbCh3uyYo2dK9xHuH84tXWKg9EZCB+QFYehN3nxhxthRWcjZhMYnYEwAVlxmPT0dJrqk7LIO8KAzkbMJjA6A2HCK7ICAIgYICsAAIeBrAAAHMbrsuJZDyHPdkzCtX661pCSum0dSLgnK9Z+SDrq1sbJZXOjcCANoBkhb2DcHxB4TfkRl2QloB+SjqBfE3YIWLnL5kbhQOxn6H12f0DgNeVHHJCVLSf29y2a3mLRKIsf79vxQ/KgjZPL5kZ2frBvaMoaNqybxMwSFkMqHprLAwKvKZ8Sqqy8eXzvzc8/NOWd9IV7s/+8p7Bz/gSlstjxQ/KgjZPL5kbmDpjRlbVj3SQdr4jFkIqH5vKAwGvKp4QqK78ofEw0Rsjau1JpjGDHD8mDNk7umxsZ+s4wdGXtWDdFmeC7LIZUPDSXBwReUz4lVFmRbJwW718aSTZOhuvmRpxwWDcpK2RYDKlk3eLmgMBryqeEKitdCsaKs5Unt89Xzlbs+CF50MZJwgVzIyNQZ3Rl7Vg3SQ2J2BxSiXAPCLymfEqosrJk/19Ei+x2eQ8rP1ux44fkQRsnl82NzB0woytrx7pJ6o+IzSF1eUDgNeVTQpUV4oUD6+OXjY/O/l3CyslKTTHs+SF50MbJZXMja0Fh6MrasW5SHi/D5pC6PCDwmvIpDsiKTQL6IXnQxsl9cyM7KMvasW6yOF6bQ+rygMBryqe4JyvWWLziI5va2i+JhFLWs4gHBa8pnwJZqQN05kZ2CKWsZ7E4KHhN+RHISh2gMzeyQyhlPYvFQcFryo94RVYAABEDZAUA4DCQFQCAw0BWAAAOU/ey4jVfL6/1BwDf4ZKsuOzrFQqSndqqVauEneHtkuiEBmsy4F9ckhWXfb1CQewPpRMSEkTroLD2VvQBgDUZ8C8OyMpfj5UmrJx8Y87IO19O1d0T5L6vl4gujx07tfz8/NmzZ/MivLiF41xRURFVSwf46quvZmVlxcTESH02t2uYnNAMWJMB3xKqrKz55J02S364g/mJd5/t+MIjSmVx39eLo8tj006Npld33nmn+R4ZC8e5hx9+uLy8nMSlSZMmjzzyCGUQ+6xrV3JCM2BNBnxLqLJy67JHRL+VP+1crPRbcd/Xi6PLY9NOjf6/9957I0eONO/lfHe94xzTIApSmlttBmxXckIzYE0GfEuosiK5wz23b7HSHc5w3deLo8tTKzu1Bx54gCRJ2qtznOPrGkrT9IqnWULXrtkJDdZkwKeEKis2ZysSLvh6cXR5amWnRhMQWgrRgohHAjrO6dK6ds1OaLAmAz4lVFn5y6fv2vlsxX1fL44uT23t1GbNmiV+4mvHcU6Z1rUrOaEZsCYDviVUWSFeP7Yr4DdB7vt6cXR5amunRjkTEhJ4xI7jnDKta1dyQjNgTQZ8iwOyYgf3fb1ElHmCsFN75ZVXeMSO45wyrWtXckIzYE0GfItLsuICdqzS7OSpK8xOaLAmAz7F37Ki8/WqbR6PIDqhwZoM+Bd/y4rO16u2eTyC6IQGazLgX/wtKwAADwJZAQA4DGQFAOAwvpSV4JyWgitlxql6gqNuWwfADu7JSnl5eWpqaocOHZo2bZqYmLhhwwY5h20snJ8sCK6UGcnnidGgQYPmzZuPHz+eP8k4TEhHAecn4EFckhX2E9W8vLwzZ85cvnx527Zt7du3X7t2rZzPHtKv1GwSXCkzyh+5GTX3MRYWFvKnR4cJ6Sjg/AQ8iEuykpGRMX/+fDGyffv2/v37s3RVVVV6enpcXBxNZO6+++5Tp06xeJTKvYlPEPgFZnZFGjFiRHFxMdu7adOmoUOHmkuJhOLzxDMbNc+ZbtasGUtb+DyJVlWGqhWWLeCxw/kJeJNQZaW6unrpgVfjl42Pzv5dz5V/fOv4dXe1cHr06HHo0CEpyE0DcnJyFi9efLmG7OzsCRMmsHiUxr1JvJiVrkinT59OSkq6du0azZLoymReLZIEcEL0eeJpo2ZSRurA0hY+T6JVlUUrAY8dzk/Am4QqK7n717TJ/eEOZvrfLu9h5d2GNA359ttv5eiPkOjwjyS+/vpr/vv6KI17k3hp6VyRSKeysrJoEjR58mQW0clK6D5PDDpA0sRp06bxCEfyeRKtqixaCXjscH4C3iRUWelSMFb0W3ly+3yl30p0dLTowyTRuHFjPvmnhOiopHRvEi8tnStSZWUlXbExMTGkU+ZSIiH6PDFoqULrGpr10ISF79X5PIl+Kxat2Dl2OD8BDxKqrEjucIv3L1W6w/Xu3fvkyZNihC6/devWsXTz5s25rNC1RJcoS4uXkLgpxnWuSCQrw4YNi4+Pp9UNi0i1cRzxeTJjx+fJsNeKuCnG4fwEvEmosnJ74R/E2cpz+15UzlboTZtaEiN0vXGrkT59+oiLIP4dqp1LS+eKRIug5cuXFxQUBFwEOeXzJGHH58mw14q4Kcbh/AS8Saiy8ubxvTcvfWjqOxlZ+3IW7l3ROX+C8rOV8vLybt265ebmnj17lubta9asad26NTfKputf/Mg2ISGBxXWXlui0pHRFKisrS05OrqyBamMfUoilRJzyeZKw4/Nk6Fuxc+xwfgLeJFRZIUhH+hZNb7FoFM1TlJrCoIXAmDFj6L00Ojp6wIABO3bs4LuqqqpmzJjRsmXLmJiY0aNHm5+eIW2KTktKV6QRI0bw23+3bt06dOhQqZSEUz5PInZ8ngx9K3aOHc5PwJs4ICuRhJd9nszA+Ql4E8iKn3yezMD5CXgQyIqffJ7MwPkJeBDICgDAYSArAACHgawAABwGsgIAcBjICgDAYbwoK7rfmOniIrpfnbkMTNtAfcaLsqLDjlLYyeMCMG0D9RkHZOWt4x/c8dLjzRf9Xvnj/fPnz7dr1040W7l06VL37t2///57C1M4lqA8kydPvvnmm9u3b7969WqlZOjy8ATzQGrSpEm/fv1KS0v53hUrVtx0002tWrWaNm0a/62KrkvKSgyNsRtM20A9J1RZ+eux0puWjGY2TrNKcjrlP2pWlsceeyw7O5tvUlVz5swxLE3hWOL5559/9tlnKyoqJN82EV0eniA5IFGorKzcsGFDfHw830vS9umnn1JB0pHU1FQW13VJWYnO2A2mbaCeE6qs3LZ8gmiMMHd3vtkYgVYB9P7PZgTXrl3r2LEjswKwMIVjiaSkJO4tsH37dqWs6PLwBM0mioqKWJpDe7du3crSZWVl1BOW1nVJWYnO2A2mbaCeE6qsSDZO2R/kKm2c7rrrrsLCQkrQxXnfffexoIUpHEvQSoRkiKUvXLiglBVdHp7YvHkzpRMSEjIyMmi6wfeWl5ez9NWrV2+88UaW1nVJWYnO2A2mbaCeE6qsdC0YJ85WZpRkmWcrxPr167t27UoXJE0H3nrrLRYMaAonSgatVnhcRJdHzPzxxx8XFxcPGDBg+vTpfC93h6RpFFXC0rouGapKdMZuMG0D9ZxQZWXF3zaJFtkd8saZP1sxaq6r9u3bL1myhJYVVVVVLBjQFK5v375nz55l6T179ihlRZfHnJlWIuLe3bt3szStyNq1a8fSui5xxEp0xm4wbQP1nFBlhXjlk+JfFD7WLOeBxJemKjWFMW/ePHp7F58WFNAUbtWqVVlZWbT35MmTycnJZqWwyMMT3bt3p7kS6drGjRvFx2KQHlERmrPMmjWLPzNM1yVlJTpjN5i2gXqOA7JiE3rzb9as2ZkzZ3jEjikcXdtt27Zt3bp1Xl6eUlYMTR6e2Lt3b69evWgNwr7N4XvXrFlzcw2pqal8QaTrkrISnbEbTNtAPcc9WfEUOoVyBJi2gXoOZCUswLQN1GcgK2EBpm2gPlNPZQUAED4gKwAAh4GsAAAcBrICAHAY38vKRx99JIcikXpymCAy8KKs6L6mUcbNv68PEWUrDNHzzagxjpkxY0bHjh2pD126dJk5c6ZoK6OrRxe3RjxM2M0Bj+NFWdGhvCCVwVCwqFB0PLhy5UpycnJaWtqRI0euXr1KErNz586UlBT+g12LeoJArA12c8DjOCArqz7ZenvhH5rlPNDnpWnme4LC6g4XJWDovd2kgnzzu+++GzduXHR0dM+ePfmv12hvYWHhbbfddsMNN/z85z/fuHEji0uebwsXLlywYAHfZKxcuZI6wNJUz4kTJ0aPHt28eXOa43z88cc8zvMrzeXMvZIO04DdHPA2ocqKeAfzlHfSlXcwh9UdTgwGrFDazMjIKCoqonnHihUruAkT7R08ePDx48eNH70mWVzyfOvdu3dZWRnfZJw8eVK8YZLSR48epfpJbkgpeJwldOZyul6xBAN2c8DLhCorkt/KzJLnzH4rYXWHE4MBK5Q2adIk2rsxaC+pmLjJEpLnG7doEaFjpFkGS1PBkpISlqZW+O/3eYU6czldr8RN2M0BLxOqrNS5O5wYDFihtEkZuNUbh/aKQZ5Z8nyjvl29epVvMmjqIcoKX/pRhbQU4nGW0JnL6XolbsJuDniZUGWl2/JHxdnKs7tfMM9WjHC6w4nBgBUaNXLDN5s1a8Y9pThSK3xT8nyjRdDp06f5JoNmYeIiiFSGpekoqC0eZwmduZydXn0PuzngYUKVlQ1Hd3Ln/adLspXO+0Y43eHEYMAKiWPHjvFNWm7wL244OlmRPN9ycnIyMzP5JmP16tXsYyOjpuD+/T8MBS3lSFV5nCV05nJ2egW7OeBlQpUVYvPxfX1emtZ80e/7Fk1XagojTO5wNEP59NNPmZroKmTeS9XV1aQpQ4YM4fXMnTt3w4YNNGVYt26duXVpU/J8ownI4MGDqZWysjISTVqjbdmyZdiwYXzhQwUHDhz41Vdf0TyLjn3SpEk8zhI6czllr8TDNGA3B7yNA7JikzC5w5HuULXsEw1dhewLHVoTdevWbdOmTbweUp+RI0c2adIkMTGRfxyrkxWz5xtd+RkZGTQN4T+HEz98oYL5+fnUc1rKpaSk8K+NeIU6czllr8TDNGA3B7yNe7Lid8yeb8GhFMfaArs54GUgK7VA9HwLAprdiD+ECRrYzQGPA1mpBaLnWxCkp6c3atSIO2wHDezmgMeBrAAAHAayAgBwGMgKAMBhfCkrwXkaBVcKAFBb3JOV8vLy1NTUDh06NG3aNDExccOGDXIO2wRn3VSrUo58DSxhbfsUBKKtFLydgHdwSVboikpISMjLyztz5szly5e3bdvWvn37tWvXyvnsEdw1X6tStcpsh4C2T0Eg3lQNbyfgHRyQlS0n9vcrerLFolH0X/fj/YyMDPFn+0aN0UH//v1Z2sJ+qbCwsFOnTqKjUpQAy2Y2QxoxYkRxcTHbu2nTpqFDh5pLccy2Scb1v4W13zeGuT+GPdunWlUo2UoZ8HYCniFUWXnz+N64pf8x7Z1nntu3KHvfS53zJyiVpUePHocOHZKC1dXVLGFhvzRo0KBjx45RTvGHZKI0KM2QTp8+nZSUdO3aNZoL0IX6ySefSKVErG2Tats3ZX8Me7ZPtapQspUy4O0EPEOosnJ74R9EY4ScfS8rjRHord7icwQL+yWmCHxTShh6MyTSgqysLJoLTJ48mUV0smJtm1Tbvun6Y8f2qVYVSrZSBrydgGcIVVYkG6fcD/OUNk508ZhNjzgW9ktiKaWs6MyQKisr6YKMiYkhLTCXErG2Tapt33T9sWP7VKsKJVspA95OwDOEKitdCsaKs5Unt89XzlZoCUATfjFCy5N169axtB37JXFTjOvMkEgphg0bFh8ff+7cORaRauNY2ybVtm+6/tixfRJ3BaxQspUy4O0EPEOosrL4g9XcIpv+t1v6sPKzFVqMUEtiZMWKFdxhxI79krgpxnVmSLQIWr58eUFBgZ1FkPnrGJ65tn3T9ceO7ZO4K2CFkq2UAW8n4BlClZXq6uolH/4lvmB8dPbveq7441vHfzI6EikvL+/WrVtubu7Zs2dp6r5mzZrWrVu///77bK/Ofkl3pYmeRkozpLKysuTk5MoaqDb2mYXkhMRR2ibxtmrbN2V/DHu2TywhbeoqlGylDHg7Ac8QqqzY59SpU2PGjKG30+jo6AEDBuzYsYPv0tkv6a40ybrJbIY0YsQIfo/v1q1bhw4dKpUSuayyTeJt1bZvyv4wAto+8bS4qavQbCu1CN5OwBu4JyvAWcy2UvB2Ah4BsuJjRFspeDsB7wBZ8TGirRS8nYB3gKwAABwGsgIAcJi8vDxJQNSykpOTw2/hAQAAHWfPnl29erUkIGpZOXDgAH/IKQAAKDlz5kxmZua//vUvSUDUskIUFxcvBQAAPa+88sq///1vWTssZAUAAIIDsgIAcBjICgDAYSArAACHgawAABzm/wP0rCQKzzxrZQAAAABJRU5ErkJggg==;" vertex="1" parent="1">
          <mxGeometry x="399.5" y="306" width="370" height="609" as="geometry" />
        </mxCell>
      </root>
    </mxGraphModel>
  </diagram>
</mxfile>
